<?xml version="1.0" encoding="UTF-8"?>
<!-- Generator: Adobe Illustrator 12.0.0, SVG Export Plug-In . SVG Version: 6.00 Build 51448)  -->
<!DOCTYPE svg PUBLIC "-//W3C//DTD SVG 1.1//EN" "http://www.w3.org/Graphics/SVG/1.1/DTD/svg11.dtd">
<svg version="1.1" id="Layer_1" xmlns="http://www.w3.org/2000/svg" xmlns:xlink="http://www.w3.org/1999/xlink" width="284.042" height="88.313" viewBox="0 0 284.042 88.313" overflow="visible" enable-background="new 0 0 284.042 88.313" xml:space="preserve">
<g>
	<path d="M20.563,0v79.063H0V0H20.563z"/>
	<path d="M47.684,14.25l-0.375,6.211c1.531-2.445,3.355-4.279,5.474-5.502s4.529-1.834,7.234-1.834   c5.278,0,9.433,2.445,12.464,7.336c1.659-2.445,3.53-4.279,5.613-5.502c2.082-1.223,4.393-1.834,6.931-1.834   c3.352,0,6.125,0.813,8.322,2.44c2.196,1.627,3.604,3.62,4.222,5.979s0.928,6.19,0.928,11.493v46.024H79.371V36.868   c0-5.527-0.188-8.95-0.563-10.268c-0.375-1.316-1.246-1.976-2.614-1.976c-1.401,0-2.306,0.65-2.713,1.951s-0.61,4.731-0.61,10.292   v42.194H53.746V37.941c0-6.341-0.156-10.146-0.467-11.414c-0.312-1.268-1.172-1.902-2.58-1.902c-0.885,0-1.639,0.334-2.261,1   c-0.623,0.667-0.967,1.48-1.032,2.439s-0.098,3-0.098,6.121v44.877H28.184V14.25H47.684z"/>
	<path d="M125.37,14.25l-0.337,5.769c1.754-2.314,3.686-4.042,5.797-5.183s4.417-1.711,6.918-1.711c3.053,0,5.692,0.822,7.917,2.466   s3.612,3.539,4.165,5.688c0.552,2.148,0.828,5.793,0.828,10.935v27.289c0,5.891-0.35,10.081-1.048,12.571s-2.127,4.476-4.287,5.956   c-2.16,1.479-4.766,2.221-7.818,2.221c-2.437,0-4.694-0.572-6.772-1.717s-3.979-2.845-5.699-5.101v14.88h-19.75V14.25H125.37z    M130.908,33.157c0-3.998-0.145-6.419-0.434-7.265c-0.289-0.845-1.092-1.268-2.407-1.268c-1.285,0-2.111,0.488-2.48,1.463   c-0.369,0.976-0.554,3.332-0.554,7.069v26.816c0,3.9,0.192,6.339,0.577,7.313c0.385,0.976,1.22,1.463,2.505,1.463   c1.252,0,2.03-0.446,2.335-1.341c0.305-0.894,0.458-3.063,0.458-6.509V33.157z"/>
	<path d="M174.813,39.375h-18.5v-4.343c0-5.009,0.577-8.871,1.733-11.588c1.156-2.716,3.477-5.114,6.961-7.196   s8.012-3.123,13.58-3.123c6.676,0,11.707,1.18,15.094,3.539s5.422,5.255,6.105,8.688s1.026,10.501,1.026,21.206v32.505h-19.188   v-5.783c-1.205,2.324-2.761,4.066-4.667,5.229c-1.906,1.161-4.178,1.742-6.816,1.742c-3.453,0-6.622-0.969-9.505-2.905   c-2.883-1.938-4.324-6.178-4.324-12.722V59.3c0-4.851,0.765-8.155,2.294-9.913s5.321-3.81,11.375-6.153   c6.476-2.539,9.941-4.249,10.397-5.128c0.455-0.879,0.684-2.664,0.684-5.356c0-3.373-0.253-5.57-0.757-6.592   c-0.505-1.021-1.343-1.532-2.515-1.532c-1.335,0-2.165,0.431-2.49,1.29c-0.326,0.86-0.488,3.092-0.488,6.693V39.375z    M181.063,48.262c-3.158,2.31-4.989,4.245-5.493,5.806c-0.505,1.561-0.757,3.805-0.757,6.731c0,3.35,0.22,5.513,0.659,6.488   s1.31,1.463,2.612,1.463c1.236,0,2.042-0.382,2.417-1.146c0.374-0.764,0.562-2.772,0.562-6.024V48.262z"/>
	<path d="M251.141,38.75h-18.625v-7.452c0-2.598-0.209-4.358-0.623-5.284c-0.416-0.926-1.184-1.389-2.301-1.389   s-1.869,0.406-2.252,1.219s-0.574,2.633-0.574,5.461v30.521c0,2.309,0.287,4.039,0.861,5.193s1.42,1.73,2.537,1.73   c1.309,0,2.193-0.601,2.656-1.802s0.695-3.474,0.695-6.817v-7.693h17.625c-0.033,5.172-0.221,9.052-0.561,11.638   c-0.342,2.586-1.432,5.237-3.268,7.953c-1.836,2.717-4.234,4.766-7.191,6.148c-2.959,1.382-6.615,2.073-10.971,2.073   c-5.559,0-9.963-0.952-13.213-2.855c-3.25-1.904-5.55-4.573-6.898-8.007c-1.35-3.434-2.023-8.307-2.023-14.621V36.362   c0-5.5,0.552-9.649,1.657-12.448s3.462-5.296,7.07-7.493c3.607-2.197,7.996-3.296,13.164-3.296c5.137,0,9.523,1.091,13.164,3.271   s6.063,4.93,7.266,8.249S251.141,32.666,251.141,38.75z"/>
	<path d="M277.854,5.625v10.188h5.375v10.25h-5.375v34.695c0,4.268,0.221,6.646,0.662,7.135s2.283,0.732,5.525,0.732v10.438h-7.963   c-4.494,0-7.701-0.187-9.623-0.562c-1.922-0.374-3.615-1.237-5.08-2.589s-2.377-2.898-2.734-4.641   c-0.359-1.742-0.537-5.837-0.537-12.285V26.063h-4.25v-10.25h4.25V5.625H277.854z"/>
</g>
</svg>